{
  "accessors": [
    {
      "bufferView": 2,
      "componentType": 5126,
      "count": 1641,
      "max": [
        1.0006002187728882,
        -0.43910789489746094,
        1.0000002384185791
      ],
      "min": [
        -1.0000003576278687,
        -1.0142612457275391,
        -1.0000005960464478
      ],
      "type": "VEC3"
    },
    {
      "bufferView": 2,
      "byteOffset": 19692,
      "componentType": 5126,
      "count": 1641,
      "max": [
        0.99901992082595825,
        1,
        0.99901270866394043
      ],
      "min": [
        -0.99962687492370605,
        -0.9937705397605896,
        -0.99901276826858521
      ],
      "type": "VEC3"
    },
    {
      "bufferView": 1,
      "componentType": 5126,
      "count": 1641,
      "max": [
        1.5168349742889404,
        0.99018532037734985
      ],
      "min": [
        -0.93145519495010376,
        0
      ],
      "type": "VEC2"
    },
    {
      "bufferView": 1,
      "byteOffset": 13128,
      "componentType": 5126,
      "count": 1641,
      "max": [
        1.5168349742889404,
        0.99018532037734985
      ],
      "min": [
        -0.93145519495010376,
        0
      ],
      "type": "VEC2"
    },
    {
      "bufferView": 0,
      "componentType": 5125,
      "count": 6168,
      "max": [
        1640
      ],
      "min": [
        0
      ],
      "type": "SCALAR"
    },
    {
      "bufferView": 2,
      "byteOffset": 39384,
      "componentType": 5126,
      "count": 1334,
      "max": [
        1.1372041702270508,
        0.009997454471886158,
        1.1365112066268921
      ],
      "min": [
        -1.1344335079193115,
        -0.009997454471886158,
        -1.1365108489990234
      ],
      "type": "VEC3"
    },
    {
      "bufferView": 2,
      "byteOffset": 55392,
      "componentType": 5126,
      "count": 1334,
      "max": [
        0.99974817037582397,
        0.9996178150177002,
        0.99913948774337769
      ],
      "min": [
        -0.99974310398101807,
        -0.99984735250473022,
        -0.99913948774337769
      ],
      "type": "VEC3"
    },
    {
      "bufferView": 1,
      "byteOffset": 26256,
      "componentType": 5126,
      "count": 1334,
      "max": [
        1,
        1
      ],
      "min": [
        0,
        1.5646219253540039e-07
      ],
      "type": "VEC2"
    },
    {
      "bufferView": 0,
      "byteOffset": 24672,
      "componentType": 5125,
      "count": 7560,
      "max": [
        1333
      ],
      "min": [
        0
      ],
      "type": "SCALAR"
    },
    {
      "bufferView": 2,
      "byteOffset": 71400,
      "componentType": 5126,
      "count": 1334,
      "max": [
        1.1372041702270508,
        0.009997454471886158,
        1.1365112066268921
      ],
      "min": [
        -1.1344335079193115,
        -0.009997454471886158,
        -1.1365108489990234
      ],
      "type": "VEC3"
    },
    {
      "bufferView": 2,
      "byteOffset": 87408,
      "componentType": 5126,
      "count": 1334,
      "max": [
        0.99974817037582397,
        0.9996178150177002,
        0.99913948774337769
      ],
      "min": [
        -0.99974310398101807,
        -0.99984735250473022,
        -0.99913948774337769
      ],
      "type": "VEC3"
    },
    {
      "bufferView": 1,
      "byteOffset": 36928,
      "componentType": 5126,
      "count": 1334,
      "max": [
        1,
        1
      ],
      "min": [
        0,
        1.5646219253540039e-07
      ],
      "type": "VEC2"
    },
    {
      "bufferView": 0,
      "byteOffset": 54912,
      "componentType": 5125,
      "count": 7560,
      "max": [
        1333
      ],
      "min": [
        0
      ],
      "type": "SCALAR"
    },
    {
      "bufferView": 2,
      "byteOffset": 103416,
      "componentType": 5126,
      "count": 439,
      "max": [
        1,
        1,
        1.0000001192092896
      ],
      "min": [
        -1.0000002384185791,
        -1,
        -1.0000004768371582
      ],
      "type": "VEC3"
    },
    {
      "bufferView": 2,
      "byteOffset": 108684,
      "componentType": 5126,
      "count": 439,
      "max": [
        1,
        1,
        1
      ],
      "min": [
        -1,
        -1,
        -1
      ],
      "type": "VEC3"
    },
    {
      "bufferView": 1,
      "byteOffset": 47600,
      "componentType": 5126,
      "count": 439,
      "max": [
        1.0000001192092896,
        1
      ],
      "min": [
        0,
        0
      ],
      "type": "VEC2"
    },
    {
      "bufferView": 0,
      "byteOffset": 85152,
      "componentType": 5125,
      "count": 2280,
      "max": [
        438
      ],
      "min": [
        0
      ],
      "type": "SCALAR"
    },
    {
      "bufferView": 2,
      "byteOffset": 113952,
      "componentType": 5126,
      "count": 439,
      "max": [
        1,
        1,
        1.0000001192092896
      ],
      "min": [
        -1.0000002384185791,
        -1,
        -1.0000004768371582
      ],
      "type": "VEC3"
    },
    {
      "bufferView": 2,
      "byteOffset": 119220,
      "componentType": 5126,
      "count": 439,
      "max": [
        1,
        1,
        1
      ],
      "min": [
        -1,
        -1,
        -1
      ],
      "type": "VEC3"
    },
    {
      "bufferView": 1,
      "byteOffset": 51112,
      "componentType": 5126,
      "count": 439,
      "max": [
        1.0000001192092896,
        1
      ],
      "min": [
        0,
        0
      ],
      "type": "VEC2"
    },
    {
      "bufferView": 0,
      "byteOffset": 94272,
      "componentType": 5125,
      "count": 2280,
      "max": [
        438
      ],
      "min": [
        0
      ],
      "type": "SCALAR"
    },
    {
      "bufferView": 2,
      "byteOffset": 124488,
      "componentType": 5126,
      "count": 439,
      "max": [
        1,
        1,
        1.0000001192092896
      ],
      "min": [
        -1.0000002384185791,
        -1,
        -1.0000004768371582
      ],
      "type": "VEC3"
    },
    {
      "bufferView": 2,
      "byteOffset": 129756,
      "componentType": 5126,
      "count": 439,
      "max": [
        1,
        1,
        1
      ],
      "min": [
        -1,
        -1,
        -1
      ],
      "type": "VEC3"
    },
    {
      "bufferView": 1,
      "byteOffset": 54624,
      "componentType": 5126,
      "count": 439,
      "max": [
        1.0000001192092896,
        1
      ],
      "min": [
        0,
        0
      ],
      "type": "VEC2"
    },
    {
      "bufferView": 0,
      "byteOffset": 103392,
      "componentType": 5125,
      "count": 2280,
      "max": [
        438
      ],
      "min": [
        0
      ],
      "type": "SCALAR"
    },
    {
      "bufferView": 2,
      "byteOffset": 135024,
      "componentType": 5126,
      "count": 439,
      "max": [
        1,
        1,
        1.0000001192092896
      ],
      "min": [
        -1.0000002384185791,
        -1,
        -1.0000004768371582
      ],
      "type": "VEC3"
    },
    {
      "bufferView": 2,
      "byteOffset": 140292,
      "componentType": 5126,
      "count": 439,
      "max": [
        1,
        1,
        1
      ],
      "min": [
        -1,
        -1,
        -1
      ],
      "type": "VEC3"
    },
    {
      "bufferView": 1,
      "byteOffset": 58136,
      "componentType": 5126,
      "count": 439,
      "max": [
        1.0000001192092896,
        1
      ],
      "min": [
        0,
        0
      ],
      "type": "VEC2"
    },
    {
      "bufferView": 0,
      "byteOffset": 112512,
      "componentType": 5125,
      "count": 2280,
      "max": [
        438
      ],
      "min": [
        0
      ],
      "type": "SCALAR"
    },
    {
      "bufferView": 2,
      "byteOffset": 145560,
      "componentType": 5126,
      "count": 1158,
      "max": [
        11.658013343811035,
        1.1272072792053223,
        11.727448463439941
      ],
      "min": [
        -11.750679969787598,
        -1.1272072792053223,
        -11.727455139160156
      ],
      "type": "VEC3"
    },
    {
      "bufferView": 2,
      "byteOffset": 159456,
      "componentType": 5126,
      "count": 1158,
      "max": [
        1,
        1,
        0.99992948770523071
      ],
      "min": [
        -1,
        -1,
        -0.99998211860656738
      ],
      "type": "VEC3"
    },
    {
      "bufferView": 1,
      "byteOffset": 61648,
      "componentType": 5126,
      "count": 1158,
      "max": [
        1,
        1
      ],
      "min": [
        0,
        -1.5646219253540039e-07
      ],
      "type": "VEC2"
    },
    {
      "bufferView": 0,
      "byteOffset": 121632,
      "componentType": 5125,
      "count": 5724,
      "max": [
        1157
      ],
      "min": [
        0
      ],
      "type": "SCALAR"
    },
    {
      "bufferView": 2,
      "byteOffset": 173352,
      "componentType": 5126,
      "count": 1173,
      "max": [
        11.658012390136719,
        1.1272072792053223,
        11.727445602416992
      ],
      "min": [
        -11.750679969787598,
        -1.1272072792053223,
        -11.727456092834473
      ],
      "type": "VEC3"
    },
    {
      "bufferView": 2,
      "byteOffset": 187428,
      "componentType": 5126,
      "count": 1173,
      "max": [
        1,
        1,
        0.99992960691452026
      ],
      "min": [
        -1,
        -1,
        -0.99998211860656738
      ],
      "type": "VEC3"
    },
    {
      "bufferView": 1,
      "byteOffset": 70912,
      "componentType": 5126,
      "count": 1173,
      "max": [
        1,
        1
      ],
      "min": [
        0,
        -1.5646219253540039e-07
      ],
      "type": "VEC2"
    },
    {
      "bufferView": 0,
      "byteOffset": 144528,
      "componentType": 5125,
      "count": 5736,
      "max": [
        1172
      ],
      "min": [
        0
      ],
      "type": "SCALAR"
    }
  ],
  "asset": {
    "extras": {
      "author": "Noelle A. (https://sketchfab.com/nfa274)",
      "license": "CC-BY-4.0 (http://creativecommons.org/licenses/by/4.0/)",
      "source": "https://sketchfab.com/3d-models/gucci-hat-model-white-1d19da430b054958b5ffbe74808c58e7",
      "title": "Gucci Hat Model (White)"
    },
    "generator": "Sketchfab-9.7.0",
    "version": "2.0"
  },
  "bufferViews": [
    {
      "buffer": 0,
      "byteLength": 167472,
      "byteOffset": 0,
      "name": "floatBufferViews",
      "target": 34963
    },
    {
      "buffer": 0,
      "byteLength": 80296,
      "byteOffset": 167472,
      "byteStride": 8,
      "name": "floatBufferViews",
      "target": 34962
    },
    {
      "buffer": 0,
      "byteLength": 201504,
      "byteOffset": 247768,
      "byteStride": 12,
      "name": "floatBufferViews",
      "target": 34962
    }
  ],
  "buffers": [
    {
      "byteLength": 449272,
      "uri": "scene.bin"
    }
  ],
  "images": [
    {
      "uri": "textures/blinn5_baseColor.png"
    }
  ],
  "materials": [
    {
      "doubleSided": true,
      "emissiveFactor": [
        0,
        0,
        0
      ],
      "name": "blinn5",
      "pbrMetallicRoughness": {
        "baseColorFactor": [
          1,
          1,
          1,
          1
        ],
        "baseColorTexture": {
          "index": 0,
          "texCoord": 0
        },
        "metallicFactor": 0,
        "roughnessFactor": 0.61756859760000005
      }
    },
    {
      "doubleSided": true,
      "emissiveFactor": [
        0,
        0,
        0
      ],
      "name": "pasted__blinn5",
      "pbrMetallicRoughness": {
        "baseColorFactor": [
          0.90900000000000003,
          0.75909199999999999,
          0.070902000000000007,
          1
        ],
        "metallicFactor": 1,
        "roughnessFactor": 0.22999237800000005
      }
    },
    {
      "doubleSided": true,
      "emissiveFactor": [
        0,
        0,
        0
      ],
      "name": "pasted__pasted__blinn3",
      "pbrMetallicRoughness": {
        "baseColorFactor": [
          0.81528699999999998,
          0.68083300000000002,
          0.063592399999999993,
          1
        ],
        "metallicFactor": 1,
        "roughnessFactor": 0.17511432930000004
      }
    }
  ],
  "meshes": [
    {
      "name": "pasted__pCone1_blinn5_0",
      "primitives": [
        {
          "attributes": {
            "NORMAL": 1,
            "POSITION": 0,
            "TEXCOORD_0": 2,
            "TEXCOORD_1": 3
          },
          "indices": 4,
          "material": 0,
          "mode": 4
        }
      ]
    },
    {
      "name": "pasted__pTorus1_pasted__blinn5_0",
      "primitives": [
        {
          "attributes": {
            "NORMAL": 6,
            "POSITION": 5,
            "TEXCOORD_0": 7
          },
          "indices": 8,
          "material": 1,
          "mode": 4
        }
      ]
    },
    {
      "name": "pasted__pasted__pTorus1_pasted__pasted__blinn3_0",
      "primitives": [
        {
          "attributes": {
            "NORMAL": 10,
            "POSITION": 9,
            "TEXCOORD_0": 11
          },
          "indices": 12,
          "material": 2,
          "mode": 4
        }
      ]
    },
    {
      "name": "pasted__pasted__pSphere1_pasted__pasted__blinn3_0",
      "primitives": [
        {
          "attributes": {
            "NORMAL": 14,
            "POSITION": 13,
            "TEXCOORD_0": 15
          },
          "indices": 16,
          "material": 2,
          "mode": 4
        }
      ]
    },
    {
      "name": "pasted__pasted__pSphere2_pasted__pasted__blinn3_0",
      "primitives": [
        {
          "attributes": {
            "NORMAL": 18,
            "POSITION": 17,
            "TEXCOORD_0": 19
          },
          "indices": 20,
          "material": 2,
          "mode": 4
        }
      ]
    },
    {
      "name": "pasted__pasted__pasted__pSphere1_pasted__pasted__blinn3_0",
      "primitives": [
        {
          "attributes": {
            "NORMAL": 22,
            "POSITION": 21,
            "TEXCOORD_0": 23
          },
          "indices": 24,
          "material": 2,
          "mode": 4
        }
      ]
    },
    {
      "name": "pasted__pSphere1_pasted__pasted__blinn3_0",
      "primitives": [
        {
          "attributes": {
            "NORMAL": 26,
            "POSITION": 25,
            "TEXCOORD_0": 27
          },
          "indices": 28,
          "material": 2,
          "mode": 4
        }
      ]
    },
    {
      "name": "pasted__pTorus2_pasted__blinn5_0",
      "primitives": [
        {
          "attributes": {
            "NORMAL": 30,
            "POSITION": 29,
            "TEXCOORD_0": 31
          },
          "indices": 32,
          "material": 1,
          "mode": 4
        }
      ]
    },
    {
      "name": "pasted__pasted__pTorus2_pasted__blinn5_0",
      "primitives": [
        {
          "attributes": {
            "NORMAL": 34,
            "POSITION": 33,
            "TEXCOORD_0": 35
          },
          "indices": 36,
          "material": 1,
          "mode": 4
        }
      ]
    }
  ],
  "nodes": [
    {
      "children": [
        1
      ],
      "name": "RootNode (gltf orientation matrix)",
      "rotation": [
        -0.70710678118654746,
        -0,
        -0,
        0.70710678118654757
      ]
    },
    {
      "children": [
        2
      ],
      "name": "RootNode (model correction matrix)"
    },
    {
      "children": [
        3
      ],
      "matrix": [
        1,
        0,
        0,
        0,
        0,
        0,
        1,
        0,
        0,
        -1,
        0,
        0,
        0,
        0,
        0,
        1
      ],
      "name": "baf68dc34733457b89512a928b8ab14e.fbx"
    },
    {
      "children": [
        4
      ],
      "name": "RootNode"
    },
    {
      "children": [
        5,
        7,
        9,
        12
      ],
      "matrix": [
        1,
        0,
        0,
        0,
        0,
        1,
        0,
        0,
        0,
        0,
        1,
        0,
        2.0887632369995117,
        0,
        0,
        1
      ],
      "name": "group53"
    },
    {
      "children": [
        6
      ],
      "matrix": [
        1,
        0,
        0,
        0,
        0,
        1,
        0,
        0,
        0,
        0,
        1,
        0,
        -1.133879542350769,
        8.7230329513549805,
        -2.2204460492503131e-16,
        1
      ],
      "name": "pasted__pCone1"
    },
    {
      "mesh": 0,
      "name": "pasted__pCone1_blinn5_0"
    },
    {
      "children": [
        8
      ],
      "matrix": [
        0.55419337749481201,
        0,
        0,
        0,
        0,
        0.55419337749481201,
        0,
        0,
        0,
        0,
        0.55419337749481201,
        0,
        -1.133879542350769,
        7.7309579849243164,
        -2.2204460492503131e-16,
        1
      ],
      "name": "pasted__pTorus1"
    },
    {
      "mesh": 1,
      "name": "pasted__pTorus1_pasted__blinn5_0"
    },
    {
      "children": [
        10
      ],
      "matrix": [
        0.95542711019515991,
        0,
        0,
        0,
        0,
        0.95542711019515991,
        0,
        0,
        0,
        0,
        0.95542711019515991,
        0,
        3.4220443922095001e-05,
        0.48974210023880005,
        4.4170609392324423e-09,
        1
      ],
      "name": "pasted__group1"
    },
    {
      "children": [
        11
      ],
      "matrix": [
        0.55419337749481201,
        0,
        0,
        0,
        0,
        0.55419337749481201,
        0,
        0,
        0,
        0,
        0.55419337749481201,
        0,
        -1.1867775917053223,
        7.7309579849243164,
        -2.3240350023259618e-16,
        1
      ],
      "name": "pasted__pasted__pTorus1"
    },
    {
      "mesh": 2,
      "name": "pasted__pasted__pTorus1_pasted__pasted__blinn3_0"
    },
    {
      "children": [
        13,
        15,
        17,
        19,
        21
      ],
      "matrix": [
        0.10465423762798309,
        0,
        0,
        0,
        0,
        0.018209901937449969,
        0.10305779410079963,
        0,
        0,
        -0.10305779410079963,
        0.018209901937449969,
        0,
        0.0021287682466208935,
        7.8053169250488281,
        0.61149901151657104,
        1
      ],
      "name": "pasted__group6"
    },
    {
      "children": [
        14
      ],
      "matrix": [
        -0.061562272055198715,
        7.5392039420637658e-18,
        -0.0062651369742641305,
        0,
        7.0560125835056578e-18,
        0.064107336103916168,
        7.8105418892167529e-18,
        0,
        0.001403833171303318,
        1.526119712355748e-18,
        -0.013794296911128276,
        0,
        -11.091419219970703,
        3.5527136788005009e-15,
        -0.068239055573940277,
        1
      ],
      "name": "pasted__pasted__pSphere1"
    },
    {
      "mesh": 3,
      "name": "pasted__pasted__pSphere1_pasted__pasted__blinn3_0"
    },
    {
      "children": [
        16
      ],
      "matrix": [
        0.054715520671103426,
        -9.9479630310567966e-35,
        -0.034277929818150449,
        0,
        1.0867616675973319e-18,
        0.064107336103916168,
        1.7347235029490793e-18,
        0,
        0.0073658213871154281,
        -4.4302269417171597e-19,
        0.01175755812864069,
        0,
        -10.334188461303711,
        0,
        -0.31748160719871521,
        1
      ],
      "name": "pasted__pasted__pSphere2"
    },
    {
      "mesh": 4,
      "name": "pasted__pasted__pSphere2_pasted__pasted__blinn3_0"
    },
    {
      "children": [
        18
      ],
      "matrix": [
        -0.053938144817679209,
        6.6055176402917228e-18,
        0.035488606742940187,
        0,
        1.2166113339101675e-17,
        0.064107336103916168,
        6.5585962653363017e-18,
        0,
        -0.0076259779961292381,
        2.633021561887868e-18,
        -0.011590511527012279,
        0,
        -11.016448974609375,
        0,
        0.32858693599700928,
        1
      ],
      "name": "pasted__pasted__pasted__pSphere1"
    },
    {
      "mesh": 5,
      "name": "pasted__pasted__pasted__pSphere1_pasted__pasted__blinn3_0"
    },
    {
      "children": [
        20
      ],
      "matrix": [
        0.061407385656341476,
        -2.168404295870137e-19,
        0.0076353302978941053,
        0,
        1.0680724686549586e-20,
        0.064107336103916168,
        1.7347235029490793e-18,
        0,
        -0.0017108532487112868,
        -3.7204499393981704e-19,
        0.01375959141859193,
        0,
        -10.268078804016113,
        0,
        0.080916367471218109,
        1
      ],
      "name": "pasted__pSphere1"
    },
    {
      "mesh": 6,
      "name": "pasted__pSphere1_pasted__pasted__blinn3_0"
    },
    {
      "children": [
        22
      ],
      "matrix": [
        1,
        0,
        0,
        0,
        0,
        1,
        2.775557561562892e-17,
        0,
        0,
        -2.775557561562892e-17,
        1,
        0,
        0,
        0,
        0,
        1
      ],
      "name": "pasted__group7"
    },
    {
      "children": [
        23,
        25
      ],
      "matrix": [
        1,
        0,
        0,
        0,
        0,
        1,
        2.775557561562892e-17,
        0,
        0,
        -2.775557561562892e-17,
        1,
        0,
        0,
        0,
        0,
        1
      ],
      "name": "pasted__group9"
    },
    {
      "children": [
        24
      ],
      "matrix": [
        0.053850803524255753,
        0,
        0,
        0,
        0,
        0.053850803524255753,
        1.7347235276794033e-18,
        0,
        0,
        -2.0331522590377436e-18,
        0.063114888966083527,
        0,
        -10.834529876708984,
        3.5527136788005009e-15,
        0,
        1
      ],
      "name": "pasted__pTorus2"
    },
    {
      "mesh": 7,
      "name": "pasted__pTorus2_pasted__blinn5_0"
    },
    {
      "children": [
        26
      ],
      "matrix": [
        -0.053837433381866522,
        -6.59318404654117e-18,
        0.0011999196060899888,
        0,
        -6.4478736462660539e-18,
        0.053850803524255753,
        6.59318404654117e-18,
        0,
        -0.0014063447107615465,
        7.5571171202322833e-18,
        -0.063099218725397574,
        0,
        -10.52330493927002,
        7.1054273576010019e-15,
        3.538220698828809e-05,
        1
      ],
      "name": "pasted__pasted__pTorus2"
    },
    {
      "mesh": 8,
      "name": "pasted__pasted__pTorus2_pasted__blinn5_0"
    }
  ],
  "samplers": [
    {
      "magFilter": 9729,
      "minFilter": 9987,
      "wrapS": 10497,
      "wrapT": 10497
    }
  ],
  "scene": 0,
  "scenes": [
    {
      "name": "OSG_Scene",
      "nodes": [
        0
      ]
    }
  ],
  "textures": [
    {
      "sampler": 0,
      "source": 0
    }
  ]
}

