{
  "accessors": [
    {
      "bufferView": 2,
      "componentType": 5126,
      "count": 4147,
      "max": [
        1,
        0.52438199520111084,
        0.24350699782371521
      ],
      "min": [
        -1,
        -0.52438199520111084,
        -0.24350699782371521
      ],
      "type": "VEC3"
    },
    {
      "bufferView": 2,
      "byteOffset": 49764,
      "componentType": 5126,
      "count": 4147,
      "max": [
        0.99990236759185791,
        0.96993964910507202,
        0.99977225065231323
      ],
      "min": [
        -0.9999348521232605,
        -0.99818074703216553,
        -0.99997687339782715
      ],
      "type": "VEC3"
    },
    {
      "bufferView": 3,
      "componentType": 5126,
      "count": 4147,
      "max": [
        1,
        0.94926786422729492,
        0.99975275993347168,
        1
      ],
      "min": [
        -0.99999326467514038,
        -0.96038055419921875,
        -0.99996894598007202,
        1
      ],
      "type": "VEC4"
    },
    {
      "bufferView": 1,
      "componentType": 5126,
      "count": 4147,
      "max": [
        0.993694007396698,
        0.94837898015975952
      ],
      "min": [
        0.004163969773799181,
        0.046369500458240509
      ],
      "type": "VEC2"
    },
    {
      "bufferView": 0,
      "componentType": 5125,
      "count": 23181,
      "max": [
        4146
      ],
      "min": [
        0
      ],
      "type": "SCALAR"
    }
  ],
  "asset": {
    "extras": {
      "author": "Kodie Russell (https://sketchfab.com/AverageGaymer)",
      "license": "CC-BY-4.0 (http://creativecommons.org/licenses/by/4.0/)",
      "source": "https://sketchfab.com/3d-models/dickies-long-sleeve-shirt-f6f27327fbaf423081ae9da8e5dc109e",
      "title": "Dickies Long Sleeve Shirt"
    },
    "generator": "Sketchfab-9.47.0",
    "version": "2.0"
  },
  "bufferViews": [
    {
      "buffer": 0,
      "byteLength": 92724,
      "byteOffset": 0,
      "name": "floatBufferViews",
      "target": 34963
    },
    {
      "buffer": 0,
      "byteLength": 33176,
      "byteOffset": 92724,
      "byteStride": 8,
      "name": "floatBufferViews",
      "target": 34962
    },
    {
      "buffer": 0,
      "byteLength": 99528,
      "byteOffset": 125900,
      "byteStride": 12,
      "name": "floatBufferViews",
      "target": 34962
    },
    {
      "buffer": 0,
      "byteLength": 66352,
      "byteOffset": 225428,
      "byteStride": 16,
      "name": "floatBufferViews",
      "target": 34962
    }
  ],
  "buffers": [
    {
      "byteLength": 291780,
      "uri": "scene.bin"
    }
  ],
  "images": [
    {
      "uri": "textures/Shirt_baseColor.jpeg"
    },
    {
      "uri": "textures/Shirt_metallicRoughness.png"
    },
    {
      "uri": "textures/Shirt_normal.png"
    }
  ],
  "materials": [
    {
      "doubleSided": true,
      "name": "Shirt",
      "normalTexture": {
        "index": 2,
        "scale": 1,
        "texCoord": 0
      },
      "occlusionTexture": {
        "index": 1,
        "strength": 1,
        "texCoord": 0
      },
      "pbrMetallicRoughness": {
        "baseColorFactor": [
          1,
          1,
          1,
          1
        ],
        "baseColorTexture": {
          "index": 0,
          "texCoord": 0
        },
        "metallicFactor": 1,
        "metallicRoughnessTexture": {
          "index": 1,
          "texCoord": 0
        },
        "roughnessFactor": 1
      }
    }
  ],
  "meshes": [
    {
      "name": "defaultMaterial",
      "primitives": [
        {
          "attributes": {
            "NORMAL": 1,
            "POSITION": 0,
            "TANGENT": 2,
            "TEXCOORD_0": 3
          },
          "indices": 4,
          "material": 0,
          "mode": 4
        }
      ]
    }
  ],
  "nodes": [
    {
      "children": [
        1
      ],
      "name": "RootNode (gltf orientation matrix)",
      "rotation": [
        -0.70710678118654746,
        -0,
        -0,
        0.70710678118654757
      ]
    },
    {
      "children": [
        2
      ],
      "name": "RootNode (model correction matrix)"
    },
    {
      "children": [
        3
      ],
      "matrix": [
        1,
        0,
        0,
        0,
        0,
        -4.3711390063094768e-08,
        0.999999999999999,
        0,
        0,
        -0.999999999999999,
        -4.3711390063094768e-08,
        0,
        0,
        0,
        0,
        1
      ],
      "name": "Collada visual scene group"
    },
    {
      "children": [
        4
      ],
      "name": "Shirt_low"
    },
    {
      "mesh": 0,
      "name": "defaultMaterial"
    }
  ],
  "samplers": [
    {
      "magFilter": 9729,
      "minFilter": 9987,
      "wrapS": 10497,
      "wrapT": 10497
    }
  ],
  "scene": 0,
  "scenes": [
    {
      "name": "OSG_Scene",
      "nodes": [
        0
      ]
    }
  ],
  "textures": [
    {
      "sampler": 0,
      "source": 0
    },
    {
      "sampler": 0,
      "source": 1
    },
    {
      "sampler": 0,
      "source": 2
    }
  ]
}

